<svg id="Layer_1" enable-background="new 0 0 64 64" height="512" viewBox="0 0 64 64" width="512" xmlns="http://www.w3.org/2000/svg"><path d="m15.5 51h1.5c-2.8 0-5 2.2-5 5s2.2 5 5 5h9c3.3 0 6-2.7 6-6v-46c0-3.3-2.7-6-6-6h-5c-2.8 0-5 2.2-5 5s2.2 5 5 5h-7c-5 0-9 4-9 9s4 9 9 9h-1c-5.5 0-10 4.5-10 10s4.5 10 10 10z" fill="#2a78d1"/><path d="m49 51h2c5.5 0 10-4.5 10-10s-4.5-10-10-10h-1c5 0 9-4 9-9s-4-9-9-9h-7c2.8 0 5-2.2 5-5s-2.2-5-5-5h-5c-3.3 0-6 2.7-6 6v46c0 3.3 2.7 6 6 6h9c2.8 0 5-2.2 5-5s-2.2-5-5-5z" fill="#2f84ea"/><path d="m27 25h10c1.1 0 2 .9 2 2v10c0 1.1-.9 2-2 2h-10c-1.1 0-2-.9-2-2v-10c0-1.1.9-2 2-2z" fill="#ffc700"/><g fill="#e0af00"><path d="m22 27h3v2h-3z"/><path d="m22 31h3v2h-3z"/><path d="m29 29h6v6h-6z"/><path d="m22 35h3v2h-3z"/><path d="m39 27h3v2h-3z"/><path d="m39 31h3v2h-3z"/><path d="m39 35h3v2h-3z"/><path d="m35 22h2v3h-2z"/><path d="m27 22h2v3h-2z"/><path d="m35 39h2v3h-2z"/><path d="m31 39h2v3h-2z"/><path d="m27 39h2v3h-2z"/><path d="m31 22h2v3h-2z"/></g><path d="m39 12h5v2h-5z" fill="#25ab50"/><circle cx="38" cy="13" fill="#35bf65" r="2"/><path d="m51 30c-1.9 0-.7 0-1 0h-.5c-1.9 0-3.5-1.6-3.5-3.5s1.6-3.5 3.5-3.5h2.5v-2h-2.5c-3 0-5.5 2.5-5.5 5.5s2.5 5.5 5.5 5.5h.5 1z" fill="#25ab50"/><circle cx="53" cy="22" fill="#35bf65" r="2"/><path d="m39 50h8v2h-8z" fill="#25ab50"/><path d="m47 49.7c-2.3-.8-3.6-3.4-2.7-5.7.6-1.8 2.3-3 4.2-3h3.5v-2h-3.5c-3.6 0-6.5 2.9-6.5 6.5 0 3 2.1 5.6 5 6.3z" fill="#25ab50"/><circle cx="38" cy="51" fill="#35bf65" r="2"/><circle cx="53" cy="40" fill="#35bf65" r="2"/><path d="m20 12h5v2h-5z" fill="#25ab50"/><circle cx="26" cy="13" fill="#35bf65" r="2"/><path d="m13 30h1 .5c1.9 0 3.5-1.6 3.5-3.5s-1.6-3.5-3.5-3.5h-2.5v-2h2.5c3 0 5.5 2.5 5.5 5.5s-2.5 5.5-5.5 5.5h-.5s1.1 0-1 0z" fill="#25ab50"/><circle cx="11" cy="22" fill="#35bf65" r="2"/><path d="m17 50h8v2h-8z" fill="#25ab50"/><path d="m17 49.7c2.3-.8 3.6-3.4 2.7-5.7-.6-1.8-2.3-3-4.2-3h-3.5v-2h3.5c3.6 0 6.5 2.9 6.5 6.5 0 3-2.1 5.6-5 6.3z" fill="#25ab50"/><circle cx="26" cy="51" fill="#35bf65" r="2"/><circle cx="11" cy="40" fill="#35bf65" r="2"/></svg>